<svg version="1.1" id="Layer_1" xmlns="http://www.w3.org/2000/svg" xmlns:xlink="http://www.w3.org/1999/xlink" x="0px" y="0px"
	 width="100%" viewBox="0 0 512 512" enable-background="new 0 0 512 512" xml:space="preserve">
<path fill="#6366F1" opacity="1.000000" stroke="none" 
	d="
M1.000002,476.000000 
	C1.000000,330.309265 1.000000,184.618515 1.275575,38.805054 
	C1.929249,38.359825 2.527790,38.106449 2.653740,37.704853 
	C8.161246,20.144070 19.410660,8.309952 37.156174,2.851603 
	C37.586575,2.719216 37.725258,1.638439 38.000000,1.000000 
	C183.690750,1.000000 329.381500,1.000000 475.195007,1.275642 
	C475.640289,1.929369 475.893860,2.528309 476.295319,2.653769 
	C493.871460,8.145790 505.609924,19.491667 511.147980,37.155949 
	C511.283569,37.588337 512.361572,37.725254 513.000000,37.999992 
	C513.000000,183.690750 513.000000,329.381500 512.724243,475.195099 
	C512.070374,475.640686 511.470978,475.894470 511.345856,476.296082 
	C505.865540,493.883362 494.503326,505.604919 476.844391,511.147522 
	C476.411743,511.283356 476.274841,512.361389 476.000000,513.000000 
	C330.309265,513.000000 184.618515,513.000000 38.804955,512.724304 
	C38.359409,512.070435 38.104748,511.467865 37.704144,511.346313 
	C20.006620,505.977142 8.439727,494.459229 2.852605,476.845673 
	C2.714912,476.411560 1.638569,476.275208 1.000002,476.000000 
M175.430420,333.931946 
	C190.810791,294.469116 206.191162,255.006302 222.067017,214.272156 
	C222.067017,264.654480 222.067017,313.791534 222.067017,363.005219 
	C233.553940,363.005219 244.483932,363.005219 255.586639,363.005219 
	C255.586639,292.208252 255.586639,221.698898 255.586639,150.936401 
	C241.527786,150.936401 227.872421,150.839722 214.223236,151.085358 
	C212.852753,151.110016 210.895187,152.942505 210.276733,154.391296 
	C207.535019,160.813889 205.149597,167.390289 202.694656,173.933304 
	C185.512878,219.726822 168.347641,265.526550 151.155289,311.316101 
	C150.918854,311.945862 150.400223,312.469635 149.813919,313.338257 
	C145.728668,301.674347 142.127655,290.424896 137.876190,279.426880 
	C121.857300,237.988205 105.649414,196.622437 89.393913,155.275909 
	C88.731735,153.591614 86.901001,151.160980 85.569359,151.131592 
	C71.765129,150.826706 57.951565,150.944046 43.923508,150.944046 
	C43.923508,221.845505 43.923508,292.355469 43.923508,362.924805 
	C55.101177,362.924805 65.832870,362.924805 77.043762,362.924805 
	C77.043762,313.771393 77.043762,264.982391 77.043762,216.193405 
	C78.148331,216.946564 78.541901,217.819031 78.889748,218.709335 
	C97.235550,265.665497 115.599785,312.614471 133.863174,359.602692 
	C134.933853,362.357330 136.336441,363.435638 139.309082,363.352570 
	C146.301727,363.157196 153.306381,363.173737 160.300217,363.346130 
	C163.104553,363.415283 164.421707,362.370483 165.380280,359.775024 
	C168.492706,351.347656 171.864258,343.015991 175.430420,333.931946 
M435.127686,220.409485 
	C436.082153,221.542343 437.015076,223.638275 437.994354,223.660126 
	C448.600891,223.896988 459.214691,223.808075 469.771423,223.808075 
	C469.956207,222.690613 470.099121,222.207413 470.100800,221.723755 
	C470.103058,221.060181 470.046906,220.387726 469.932281,219.733719 
	C466.521118,200.274597 458.177948,183.509888 443.466766,169.986572 
	C406.662476,136.154083 329.582977,137.500107 300.039764,200.882675 
	C287.315186,228.182205 286.168243,256.867584 291.132233,285.988007 
	C299.725128,336.397003 338.500763,368.312286 388.890900,365.778290 
	C421.351990,364.145905 446.427887,349.373138 461.851044,320.050049 
	C466.590576,311.039124 469.292267,301.319519 470.255188,290.476593 
	C460.076782,290.476593 450.444580,290.614563 440.819916,290.404938 
	C437.244659,290.327026 435.645416,291.270416 434.797058,295.045837 
	C431.322510,310.508270 422.250610,321.706055 407.695618,328.112976 
	C382.018372,339.415802 344.784180,334.005890 329.170258,295.578918 
	C322.011719,277.961182 321.589600,259.540863 323.609375,240.967422 
	C325.150330,226.797409 329.600128,213.585144 338.622223,202.371124 
	C353.603485,183.750214 373.471741,177.786774 396.285004,182.414856 
	C416.644928,186.545227 429.987946,198.976547 435.127686,220.409485 
z"/>
<path fill="#FEFEFF" opacity="1.000000" stroke="none" 
	d="
M175.283234,334.289703 
	C171.864258,343.015991 168.492706,351.347656 165.380280,359.775024 
	C164.421707,362.370483 163.104553,363.415283 160.300217,363.346130 
	C153.306381,363.173737 146.301727,363.157196 139.309082,363.352570 
	C136.336441,363.435638 134.933853,362.357330 133.863174,359.602692 
	C115.599785,312.614471 97.235550,265.665497 78.889748,218.709335 
	C78.541901,217.819031 78.148331,216.946564 77.043762,216.193405 
	C77.043762,264.982391 77.043762,313.771393 77.043762,362.924805 
	C65.832870,362.924805 55.101177,362.924805 43.923508,362.924805 
	C43.923508,292.355469 43.923508,221.845505 43.923508,150.944046 
	C57.951565,150.944046 71.765129,150.826706 85.569359,151.131592 
	C86.901001,151.160980 88.731735,153.591614 89.393913,155.275909 
	C105.649414,196.622437 121.857300,237.988205 137.876190,279.426880 
	C142.127655,290.424896 145.728668,301.674347 149.813919,313.338257 
	C150.400223,312.469635 150.918854,311.945862 151.155289,311.316101 
	C168.347641,265.526550 185.512878,219.726822 202.694656,173.933304 
	C205.149597,167.390289 207.535019,160.813889 210.276733,154.391296 
	C210.895187,152.942505 212.852753,151.110016 214.223236,151.085358 
	C227.872421,150.839722 241.527786,150.936401 255.586639,150.936401 
	C255.586639,221.698898 255.586639,292.208252 255.586639,363.005219 
	C244.483932,363.005219 233.553940,363.005219 222.067017,363.005219 
	C222.067017,313.791534 222.067017,264.654480 222.067017,214.272156 
	C206.191162,255.006302 190.810791,294.469116 175.283234,334.289703 
z"/>
<path fill="#FEFEFF" opacity="1.000000" stroke="none" 
	d="
M435.055725,220.003113 
	C429.987946,198.976547 416.644928,186.545227 396.285004,182.414856 
	C373.471741,177.786774 353.603485,183.750214 338.622223,202.371124 
	C329.600128,213.585144 325.150330,226.797409 323.609375,240.967422 
	C321.589600,259.540863 322.011719,277.961182 329.170258,295.578918 
	C344.784180,334.005890 382.018372,339.415802 407.695618,328.112976 
	C422.250610,321.706055 431.322510,310.508270 434.797058,295.045837 
	C435.645416,291.270416 437.244659,290.327026 440.819916,290.404938 
	C450.444580,290.614563 460.076782,290.476593 470.255188,290.476593 
	C469.292267,301.319519 466.590576,311.039124 461.851044,320.050049 
	C446.427887,349.373138 421.351990,364.145905 388.890900,365.778290 
	C338.500763,368.312286 299.725128,336.397003 291.132233,285.988007 
	C286.168243,256.867584 287.315186,228.182205 300.039764,200.882675 
	C329.582977,137.500107 406.662476,136.154083 443.466766,169.986572 
	C458.177948,183.509888 466.521118,200.274597 469.932281,219.733719 
	C470.046906,220.387726 470.103058,221.060181 470.100800,221.723755 
	C470.099121,222.207413 469.956207,222.690613 469.771423,223.808075 
	C459.214691,223.808075 448.600891,223.896988 437.994354,223.660126 
	C437.015076,223.638275 436.082153,221.542343 435.055725,220.003113 
z"/>
</svg>