<svg version="1.1" id="Layer_1" xmlns="http://www.w3.org/2000/svg" xmlns:xlink="http://www.w3.org/1999/xlink" x="0px" y="0px"
	 width="100%" viewBox="0 0 512 512" enable-background="new 0 0 512 512" xml:space="preserve">
<path fill="#6366F1" opacity="1.000000" stroke="none" 
	d="
M1.000001,476.000000 
	C1.000000,330.309265 1.000000,184.618515 1.275611,38.805000 
	C1.929279,38.359669 2.527734,38.106228 2.653692,37.704601 
	C8.161085,20.143854 19.410543,8.309907 37.155872,2.851484 
	C37.586353,2.719069 37.725155,1.638395 38.000000,1.000000 
	C183.690750,1.000000 329.381500,1.000000 475.195068,1.275685 
	C475.640472,1.929405 475.894073,2.528250 476.295593,2.653720 
	C493.871613,8.145726 505.610046,19.491478 511.148132,37.155655 
	C511.283722,37.588131 512.361572,37.725170 513.000000,38.000000 
	C513.000000,183.690750 513.000000,329.381500 512.724243,475.195129 
	C512.070374,475.640839 511.471039,475.894684 511.345917,476.296326 
	C505.865631,493.883484 494.503448,505.605011 476.844727,511.147675 
	C476.411987,511.283539 476.274963,512.361450 476.000000,513.000000 
	C330.309265,513.000000 184.618515,513.000000 38.804901,512.724243 
	C38.359261,512.070374 38.104530,511.467926 37.703911,511.346344 
	C20.006310,505.977448 8.439795,494.459259 2.852509,476.846008 
	C2.714782,476.411804 1.638526,476.275330 1.000001,476.000000 
M90.360641,157.853668 
	C76.985306,169.682953 67.357529,184.143417 61.027042,200.726334 
	C49.972626,229.683685 48.671616,259.588501 54.217472,289.738220 
	C63.621109,340.860504 100.298332,380.397034 156.790131,381.464722 
	C194.134537,382.170502 224.656540,368.283264 245.390076,336.096161 
	C253.262115,323.875488 257.274200,310.244873 259.108521,295.466919 
	C257.262512,295.348236 255.811188,295.177460 254.359451,295.174011 
	C244.363480,295.150299 234.364853,295.290314 224.372833,295.090240 
	C220.969513,295.022156 219.477585,295.859894 218.705948,299.491211 
	C215.269897,315.661499 206.406204,328.038818 191.796356,336.078644 
	C165.897919,350.330597 122.359459,348.721649 102.049278,309.448944 
	C85.501801,277.451996 85.632034,243.732330 99.029510,210.816071 
	C111.937317,179.102890 141.788727,164.538849 175.173691,171.937744 
	C198.440216,177.094162 213.244263,191.346054 218.923080,214.769669 
	C219.300812,216.327744 220.873764,218.781860 221.937592,218.806595 
	C234.219009,219.092117 246.509476,218.988785 259.210480,218.988785 
	C255.945602,194.818604 246.887115,174.122162 228.972397,158.135910 
	C190.880905,124.144844 130.597458,123.965652 90.360641,157.853668 
M333.838837,299.660156 
	C333.912109,298.034576 333.985413,296.408997 334.086426,294.167969 
	C336.516693,294.167969 338.631012,294.203796 340.743835,294.162354 
	C359.549194,293.793640 378.526123,294.878815 397.120453,292.700714 
	C427.635468,289.126312 448.985687,272.465424 458.917358,242.648727 
	C462.706024,231.274567 463.778839,219.502289 462.850647,207.624481 
	C461.338959,188.279465 455.075134,170.857574 440.703094,157.142075 
	C425.021240,142.176575 405.676208,136.304291 384.581390,136.006180 
	C355.765930,135.598999 326.941010,135.854584 298.120148,135.854263 
	C296.859802,135.854248 295.599457,136.135529 294.251343,136.296234 
	C294.251343,217.059448 294.251343,297.469727 294.251343,378.036774 
	C307.493195,378.036774 320.509827,378.036774 333.838623,378.036774 
	C333.838623,351.908783 333.838623,326.266052 333.838837,299.660156 
z"/>
<path fill="#FEFEFF" opacity="1.000000" stroke="none" 
	d="
M90.618439,157.611053 
	C130.597458,123.965652 190.880905,124.144844 228.972397,158.135910 
	C246.887115,174.122162 255.945602,194.818604 259.210480,218.988785 
	C246.509476,218.988785 234.219009,219.092117 221.937592,218.806595 
	C220.873764,218.781860 219.300812,216.327744 218.923080,214.769669 
	C213.244263,191.346054 198.440216,177.094162 175.173691,171.937744 
	C141.788727,164.538849 111.937317,179.102890 99.029510,210.816071 
	C85.632034,243.732330 85.501801,277.451996 102.049278,309.448944 
	C122.359459,348.721649 165.897919,350.330597 191.796356,336.078644 
	C206.406204,328.038818 215.269897,315.661499 218.705948,299.491211 
	C219.477585,295.859894 220.969513,295.022156 224.372833,295.090240 
	C234.364853,295.290314 244.363480,295.150299 254.359451,295.174011 
	C255.811188,295.177460 257.262512,295.348236 259.108521,295.466919 
	C257.274200,310.244873 253.262115,323.875488 245.390076,336.096161 
	C224.656540,368.283264 194.134537,382.170502 156.790131,381.464722 
	C100.298332,380.397034 63.621109,340.860504 54.217472,289.738220 
	C48.671616,259.588501 49.972626,229.683685 61.027042,200.726334 
	C67.357529,184.143417 76.985306,169.682953 90.618439,157.611053 
z"/>
<path fill="#FEFEFF" opacity="1.000000" stroke="none" 
	d="
M333.838745,300.141754 
	C333.838623,326.266052 333.838623,351.908783 333.838623,378.036774 
	C320.509827,378.036774 307.493195,378.036774 294.251343,378.036774 
	C294.251343,297.469727 294.251343,217.059448 294.251343,136.296234 
	C295.599457,136.135529 296.859802,135.854248 298.120148,135.854263 
	C326.941010,135.854584 355.765930,135.598999 384.581390,136.006180 
	C405.676208,136.304291 425.021240,142.176575 440.703094,157.142075 
	C455.075134,170.857574 461.338959,188.279465 462.850647,207.624481 
	C463.778839,219.502289 462.706024,231.274567 458.917358,242.648727 
	C448.985687,272.465424 427.635468,289.126312 397.120453,292.700714 
	C378.526123,294.878815 359.549194,293.793640 340.743835,294.162354 
	C338.631012,294.203796 336.516693,294.167969 334.086426,294.167969 
	C333.985413,296.408997 333.912109,298.034576 333.838745,300.141754 
M345.517212,171.837814 
	C341.758453,171.837814 337.999664,171.837814 334.188507,171.837814 
	C334.188507,200.959061 334.188507,229.323364 334.188507,258.152924 
	C348.812958,258.152924 363.091949,258.212677 377.369873,258.114380 
	C381.348083,258.086975 385.448639,258.112000 389.269806,257.188843 
	C394.860840,255.838043 400.708160,254.461411 405.637482,251.668335 
	C418.739655,244.244293 422.562012,231.550156 423.451691,217.450745 
	C425.191162,189.884628 409.945190,172.793350 382.460510,172.023132 
	C370.485016,171.687531 358.494629,171.883331 345.517212,171.837814 
z"/>
<path fill="#6366F1" opacity="1.000000" stroke="none" 
	d="
M346.014099,171.837799 
	C358.494629,171.883331 370.485016,171.687531 382.460510,172.023132 
	C409.945190,172.793350 425.191162,189.884628 423.451691,217.450745 
	C422.562012,231.550156 418.739655,244.244293 405.637482,251.668335 
	C400.708160,254.461411 394.860840,255.838043 389.269806,257.188843 
	C385.448639,258.112000 381.348083,258.086975 377.369873,258.114380 
	C363.091949,258.212677 348.812958,258.152924 334.188507,258.152924 
	C334.188507,229.323364 334.188507,200.959061 334.188507,171.837814 
	C337.999664,171.837814 341.758453,171.837814 346.014099,171.837799 
z"/>
</svg>